<?xml version="1.0" encoding="UTF-8"?>
<svg id="Layer_1" data-name="Layer 1" xmlns="http://www.w3.org/2000/svg" viewBox="0 0 612 792">
  <path d="M293.79,231.29c92.83-6.12,185.77,62.24,242.18,130.23,8.97,10.81,17.33,22.3,25.08,34.03.23,2.31-14.03,20.94-16.66,24.34-51.45,66.62-140.83,136.15-227.91,141.09-105.14,5.96-210.18-82.26-265.55-164.54-.23-2.31,14.03-20.94,16.66-24.34,51.43-66.59,139.34-135.08,226.19-140.81ZM294.79,261.29c-72.28,4.95-142.01,59.38-188.31,111.69-2.85,3.22-18.5,20.95-18.28,23.36,51.31,66.48,137.84,139.78,227.28,134.65,72.53-4.17,143.68-59.61,190.02-111.98,2.85-3.22,18.5-20.95,18.28-23.36-51.96-67.13-138.43-140.57-229-134.36Z"/>
  <polygon points="140 171 140 201 80 201 80 261 50 261 50 171 140 171"/>
  <polygon points="562 171 562 261 532 261 532 201 472 201 472 171 562 171"/>
  <polygon points="80 531 80 591 140 591 140 621 50 621 50 531 80 531"/>
  <polygon points="562 531 562 621 472 621 472 591 532 591 532 531 562 531"/>
  <path d="M296.8,291.3c85.53-7,144.08,85.99,98.62,159.62-43.62,70.65-148.63,65.3-184.27-9.56-31.36-65.86,13.12-144.12,85.66-150.06ZM358.65,342.35c-36.11-35.46-97.37-25.06-119.83,19.97-31.84,63.83,35.74,132.21,100.16,101.16,46.11-22.22,56.26-85.21,19.67-121.14Z"/>
  <path d="M300.78,351.28c60.7-6.65,68.17,85.25,8.71,89.7s-66.12-83.41-8.71-89.7ZM295.34,406.66c14.46,14.46,35.85-8.74,20.59-22.09-14.13-12.37-34.19,8.49-20.59,22.09Z"/>
</svg>