<?xml version="1.0" encoding="UTF-8"?>
<svg id="Layer_1" data-name="Layer 1" xmlns="http://www.w3.org/2000/svg" viewBox="0 0 612 792">
  <path d="M303.73,140.56c2.22-.73,3.92-.08,5.99.57,10.87,3.44,31.59,17.73,43.25,23.74,52.43,27,107.86,48.44,164.74,64.26,3.42,2.17,6.6,5.3,6.33,9.67-.78,82.87,7.96,160.06-24.87,238.22-28.99,69.02-99.66,145.87-171.66,170.34-22.94,7.8-33.59,4.58-55.19-4.84-72.08-31.45-136.65-103.72-164.07-176.93-28.13-75.08-19.43-151.66-19.81-230.3.33-.88.95-2.21,2.14-3.52,1.62-1.78,3.44-2.58,4.41-2.93,32.3-8.94,68.55-20.97,208.74-88.29ZM502.86,247.5c-68.62-19.73-134.21-48.44-196.44-83.13-3.55-.23-22.54,11.97-27.4,14.51-54.26,28.39-110.88,51.76-169.88,68.62,1,63.89-5.63,128.64,12.6,190.62,22.72,77.25,88.71,156.63,164.3,186.7,18.3,7.28,21.64,7.28,39.94,0,102.7-40.85,178.03-159.91,177.07-269.93l-.18-107.4Z"/>
  <path d="M428.64,304.71c15.7,15.11,12.54,35.86-.62,51.18-39.15,45.56-91.2,86.25-131.5,131.5-13.69,12.49-32.58,13.82-47.44,2.39-24.19-18.62-48.18-50.92-70.91-72.09-15.11-25.07,4.04-55.9,33.36-53.36,21.94,1.9,43.22,35.98,59.96,49.02l111.57-111.42c13.41-9.99,33.44-8.9,45.58,2.78ZM401.75,316.57c-3.03.5-6.01,2.78-8.27,4.77l-117.47,116.52c-3.53,1.93-7.08,1.44-10.54-.48-15.76-13.72-30.05-32.94-45.95-46.05-6.74-5.56-14.46-8.97-21.51-1.46-6.72,7.15-3.36,14.47,1.96,21.01,16.99,20.88,42.69,39.73,60.55,60.45,4.89,3.77,10.38,6.82,16.48,3.53l138.45-137.54c6.38-10.05-2.08-22.67-13.71-20.75Z"/>
  <path d="M152.1,278.46c-1.12,1.3.51,29.17-.19,34.31-1.79,13.2-18.28,14.54-21.28,1.45-1.65-7.18-1.52-34.48-.64-42.37.76-6.81,2.85-8.72,8.74-11.26,18.63-8.03,41.11-12.84,60.05-21.02,9.82-1.35,16.49,10.21,9.6,17.68-3.65,3.95-24.47,10.82-30.88,13.12-8.34,3-16.88,5.71-25.42,8.08Z"/>
  <path d="M424.71,486.57c11.56-2.63,17.68,7.04,12.11,17.11-9.68,17.5-33.69,42.64-48.81,56.19-3.97,3.56-18.35,15.96-22.61,16.46-8.99,1.05-15.25-9.22-10.41-16.48,3.95-5.93,17.08-14.48,23.02-19.98,9.39-8.7,18.94-19.07,26.96-29.04,3.92-4.88,15.11-23.21,19.74-24.26Z"/>
  <path d="M335.75,572.57c16.22-2.67,16.55,20.75,2.63,21.74-13.52.96-15.86-19.56-2.63-21.74Z"/>
  <path d="M223.34,229.7c9.68-9.49,24.71,4.11,16.1,14.6-9.39,11.46-26.82-4.11-16.1-14.6Z"/>
</svg>