<?xml version="1.0" encoding="UTF-8"?>
<svg id="Layer_1" data-name="Layer 1" xmlns="http://www.w3.org/2000/svg" viewBox="0 0 612 792">
  <path d="M315.48,254.77v31.13h60.54l46.72,43.22c12.43,2.42,26.53-3,37.45,5.22,1.81,1.36,7.5,8.04,7.5,9.79v42.09h35.75v-32.86c0-1.65,4.6-9.45,5.96-11.33,18.07-24.97,57.35-14.5,60.96,15.9-3.46,57.34,4.44,119.78,0,176.52-2.49,31.91-43.4,42.68-61.67,16.6-.97-1.38-5.26-9.96-5.26-10.88v-32.86h-35.75c.06,5.96-.06,11.95-.05,17.92,0,4.66.02,9.07,0,13.75-.06,11.88,1.95,34.38-.21,44.75-1.52,7.29-10.22,14.18-17.61,14.68l-199.44-.06-82.55-56.98c-18.79-4.05-62.54,5.36-77.24-5.79-2.39-1.82-9.2-10.06-9.2-12.71v-89.94l-1.73-1.73h-34.02v78.99c0,7.66-14.99,11.59-16.21-1.08l.1-173.01c2.11-9.11,16.11-6.83,16.11,1.12v78.99h34.02l1.73-1.73v-66.88c0-1.73,4.65-8.99,6.18-10.54,10.4-10.52,24.53-6.06,37.62-7.93l45.57-43.22h61.69v-31.13h-42.09c-.73,0-5.27-3.58-5.75-4.63-2.75-6,1.54-11.77,7.98-11.59l167.2.15c11.56,1.8,7.15,16.08,1.22,16.08h-45.55ZM299.33,254.77h-51.89v31.13h51.89v-31.13ZM451.27,347.29l-35.18-2.3-45.87-42.92-194.25.57-45.01,42.62c-6.78,2.56-30.82-3.08-33.2,4.86l.61,170.75c1.36,2.86,4.96,3.42,7.81,3.72,20.99,2.19,45.05-2.05,66.37.51l82.43,57.09,193.67.05c3.18-.47,3.74-3.59,4.06-6.32,2.69-23.35-1.38-52.38-.97-76.15.09-5.22,3.5-8.07,8.42-8.65,10.8-1.26,39.97-1.24,50.79,0,10.48,1.21,7.4,7.86,7.42,14.39.03,11.62-2.87,33.67,7.73,40.79,11.76,7.9,25.53,1.74,28.09-11.89l-.91-179.02c-4.75-12.07-20.68-15.28-29.56-5.96-7.44,7.8-5.31,27.91-5.35,38.56-.02,5.26,2.8,9.55-3.43,13.77l-55.96.65c-9.2-1.89-6.21-8.53-6.23-14.43-.02-6.19.98-38.25-1.48-40.71Z"/>
  <path d="M323.55,411.59h31.71c4.6,0,9.13,9.96,4.56,13.79l-88.45,98.34c-5.95,2.85-11-.48-12.25-6.57l16.01-64.04h-29.4c-3.3,0-8.74-7.79-5.8-11.57,11.26-22.46,20.62-45.98,31.91-68.41,1.87-3.72,7.2-16.07,10.23-17.44l59.95-.02c3.57,2.92,4.1,6.63,2.92,10.99-2.08,7.66-11.57,22.37-15.44,30.69-2.13,4.58-4.17,9.51-5.93,14.25ZM324.7,370.08h-32.86l-31.71,66.88h28.25c.92,0,3.79,2.57,4.34,3.73,4.23,9.01-9.19,34.03-7.8,44.7l50.17-57.65h-28.25c-1.19,0-6.65-7.14-5-9.51l22.87-48.14Z"/>
</svg>