<?xml version="1.0" encoding="UTF-8"?>
<svg id="Layer_1" data-name="Layer 1" xmlns="http://www.w3.org/2000/svg" viewBox="0 0 595.28 841.89">
  <path d="M246.64,503.44c5.76.95,11.6,2.64,17.46,3.04,18.53,1.28,69.6,2.11,85.53-3.55,17.5-6.22,30.2-22.71,33-41-1.68-26.2,2.26-55.17.05-81.03-.35-4.12-2.45-7.29-2.04-11.46h39.5c15.07,0,31.22,17.47,31.48,32.52-2.93,45.15,3.99,95.41,0,139.97-1.54,17.27-14.34,30.41-31.49,32.51-45.55-3.22-97.14,4.33-141.98,0-10.59-1.02-21.25-7.16-26.7-16.3-1.12-1.88-4.81-9.57-4.81-11.19v-43.5Z"/>
  <path d="M348.64,338.44c-5.76-.95-11.6-2.64-17.46-3.04-19.24-1.33-49.84-1.39-69.03.05-24.09,1.81-47,19.43-49.5,44.5-2.04,20.46-1.61,60.2-.05,81.03.3,4.04,2.07,7.45,2.04,11.46h-39.5c-15.07,0-31.22-17.47-31.48-32.52,2.93-45.15-3.99-95.41,0-139.97,1.54-17.27,14.34-30.41,31.49-32.51,45.55,3.22,97.14-4.33,141.98,0,10.59,1.02,21.25,7.16,26.7,16.3,1.12,1.88,4.81,9.57,4.81,11.19v43.5Z"/>
  <path d="M261.38,369.68c22.35,1.4,48.91-2.7,70.77-.24,7.4.83,15.58,6.69,16.52,14.48-2.1,23.3,2.73,51.32,0,74.05-.93,7.75-9.07,13.64-16.52,14.48-15.7,1.77-52.03,1.47-68.04.04-7.83-.7-16.47-6.12-17.48-14.52-2.76-22.96,2.06-51.41.09-74.96,1.77-6.99,7.81-11.67,14.67-13.33Z"/>
</svg>