<?xml version="1.0" encoding="UTF-8"?>
<svg id="Layer_1" data-name="Layer 1" xmlns="http://www.w3.org/2000/svg" viewBox="0 0 595.28 841.89">
  <path d="M336.5,469.15l-8.03,19.08c1.82,6.19,13.11,20.97,11.37,26.7s-24.16,23-28.64,29.42c-7.41,4.74-20.37-7.56-28.29-9.22l-18.66,8.28c-2.83,4.79-6.59,24-11.02,25.98-12.37-.49-30.57,2.55-42.29.28-1.2-.23-1.96-.48-2.75-1.46-3.6-4.49-5.93-22.46-9.99-25.74l-18.28-7.33c-6.86,2.22-19.87,12.5-26.71,10.35-6.01-1.89-22.34-23.62-28.96-28.06-5.09-7.62,6.58-18.97,8.54-26.49,1.42-5.42-6.18-15.49-7.55-21.52-8.77-4.29-25.97-4.23-27.04-15.96-.61-6.64-1-31.18.26-36.83,1.78-7.97,21.25-8.91,27.25-13.75l7.32-18.3c-3.15-8.38-10.45-17.08-10.59-25.95l31.54-30.54c6.08-1.25,16.81,8.64,23.26,10.4,5.25,1.43,14.53-6.72,20.79-6.79,1.37-1.37,5.84-19.85,7.99-23.51,1.85-3.15,5.32-4,8.68-4.32,6.38-.61,30.38-.95,35.84.26,8.33,1.86,8.5,23.05,14.34,27.66,1.63,1.29,15.78,7.16,17.78,7.07,7.78-.34,18.59-12.09,26.64-9.5,6.17,1.99,22.69,23.97,29.43,28.57,2.84,6.16-8.96,21.17-10.01,28.06l8.57,18.38,25.48,9.52v45.03s-26.27,10.24-26.27,10.24ZM228.06,384.18c-74.53,4.04-59.91,119.09,13.46,104.48,62.14-12.38,51.71-108.01-13.46-104.48Z"/>
  <path d="M408.75,406.89c3.49,1,6.42,18.14,8.71,21.8,3.97-.86,10.88,4.83,13.29,4.83,5.41,0,13.86-10.83,21.79-8.43,4.18,1.27,19.09,20.41,24.2,23.82,2.99,6.48-8.35,17.33-7.34,23.22.11.67,4.59,12.04,5.07,12.52,4.4,4.39,21.49,2.6,22.79,13.71.52,4.46.62,27.23-.46,30.58-1.92,5.92-18.11,5.75-21.45,10.55-.59.85-5.04,12.2-5.04,12.89-.02,7.47,12.96,14.42,5.45,24.52-2.43,3.27-19.84,20.29-22.82,21.24-6.23,1.99-16.4-7.62-21.36-8.03-.64-.05-10.99,3.9-12.07,4.54-6.32,3.74-3.05,21.26-13.71,22.29-4.45.43-30.76.45-33.34-.79-3.69-1.77-6.23-16.22-8.75-20.25l-13.17-5.8c-5.54,1.25-17.21,9.93-22.34,8.36-1.56-.48-22.1-20.39-23.52-22.53-1.94-2.93-1.94-4.65-.97-8.1.2-.7,4.37-9.35,4.75-9.74.82-.83,6.97-2.56,9.8-4.7,4.81-3.65,30.27-29.5,32.16-33.84,3.17-7.27,1.66-10.46-1-17.36-3.21-8.32-10.4-13.36-4.26-22.65,1.06-1.6,18.54-6.33,22.41-8.84,2.86-1.85,6.37-6.55,7.19-9.81,1.5-5.89,1.34-39.58.5-46.55-.36-2.99-1.75-4.92-3.02-7.48h36.5ZM396.03,470.17c-50.94.59-54.38,76.05-7.02,82.47,62.39,8.46,64.79-83.14,7.02-82.47Z"/>
  <path d="M437.48,241.66c.39.46,8.14,3.3,9.19,3.23,3.9-.25,11.7-6.81,15.6-5.6,1.7.53,16.19,14.67,17.43,16.65,5.59,8.9-4.9,13.99-3.25,22.22,1.9,9.45,9.39,7.08,16.04,10.99,1.24.73,3.73,2.56,4.23,3.77.98,2.35.96,21.29.31,24.26-1.51,6.88-14.67,6.08-16.86,9.39-.58.87-2.98,7.73-2.92,8.75.29,4.48,7.14,11.54,5.58,16.61-.76,2.5-17.85,19.29-20.32,19.79-6.12,1.26-12.12-6.58-17.51-5.67-1.17.2-6.43,2.96-7.22,3.87-2.89,3.33-2.87,13.35-7.55,15.45-2.28,1.02-24.01.91-27.29.27-5.71-1.11-4.8-12.95-9.33-16.62-10.27-8.32-16.25,4.94-24.4,2.46-2.47-.75-19.35-17.92-19.82-20.33-.96-4.97,6.38-11.02,5.67-16.49-.22-1.68-2.56-7.24-3.87-8.22-3.12-2.33-13.53-3.22-15.22-6.78-1.05-2.21-1.3-24.4-.52-27.07,1.61-5.52,13.2-5.08,16.66-9.34,8.32-10.27-4.94-16.25-2.46-24.4.57-1.88,16.88-18.36,18.86-19.22,5.87-2.55,13.47,6,18.97,5.08.66-.11,7.27-2.75,7.53-3.06,2.26-2.71,2.17-13.74,7.48-16.01,3.07-1.31,24.43-1.31,27.49,0,5.32,2.28,5.2,13.29,7.48,16.01ZM408.99,275.13c-34.73,5.86-30.06,63.08,7.61,61.69,42.99-1.58,38.73-69.51-7.61-61.69Z"/>
</svg>