<?xml version="1.0" encoding="UTF-8"?>
<svg id="Layer_1" data-name="Layer 1" xmlns="http://www.w3.org/2000/svg" viewBox="0 0 595.28 841.89">
  <path d="M159.88,242.19l305.8-.28c14.23,1.31,25.9,13.5,27.5,27.5v302.08c-1.26,13.81-13.69,26.24-27.5,27.5H162.6c-13.81-1.26-26.24-13.69-27.5-27.5l.04-303.05c2.11-12.85,12.01-23.48,24.75-26.25ZM410.14,253.94h-13.01v13.01h13.01v-13.01ZM481.14,304.94v-32.5c0-7.33-10.1-18.5-17.5-18.5h-40.5v13h39.5c1.17,0,5.5,4.32,5.5,5.5v32.5h13ZM312.89,299.11l-100.26,53.83c.47,27.2-2.31,56.56-.54,83.55,3.94,60.25,56.84,84.98,98.69,117.31,2.15,1.53,4.59,1.52,6.72,0,29.36-24.41,68.66-41.94,86.82-77.18,19.3-37.47,9.44-79.63,11.88-120.24.58-4.92-6.46-7.41-10.39-9.61-24.95-14.01-52.12-28.43-77.65-41.35-3.48-1.76-12.02-6.86-15.27-6.32ZM160.14,528.94h-13v39.5c0,7.33,10.1,18.5,17.5,18.5h40.5v-13h-39.5c-1.18,0-5.5-4.33-5.5-5.5v-39.5ZM231.14,573.94h-13.01v13.01h13.01v-13.01Z"/>
  <path d="M403.97,360.1c-1.49,38.37,6.94,79.35-13.03,114.15-16.55,28.83-49.67,43.85-74.48,64.57l-2.67.93c-28.5-22.36-64.74-38.88-80.51-73.44-14.94-32.73-7.41-71.17-8.98-106.2l90.25-47.18,89.42,47.18ZM312.89,328.11l-74.23,39.86c-1.4,1.65-1.39,3.43-1.57,5.43-1.46,16.43-1.05,44.37,0,61.1,3.03,48.3,41.39,61.27,74.09,87.93,4.56,1.86,8.56-2.19,12.27-4.66,18.72-12.45,50.47-33.9,60.23-53.77,9.53-19.41,9.52-68.45,7.5-90.59-.29-3.18-.68-5.56-3.7-7.3-20.07-9.96-39.35-21.56-59.33-31.67-3.48-1.76-12.02-6.86-15.27-6.32Z"/>
  <path d="M312.9,342.11c1.16-.29,2.14-.33,3.17.35l61.57,33.48c-.2,19.47,1.96,41.17.53,60.54-2.78,37.72-37.62,51.06-63.59,71.52l-2.41-.57c-25.26-21.19-59.3-33.24-62.08-70.95-1.43-19.38.73-40.97.53-60.54l62.27-33.82Z"/>
</svg>