<?xml version="1.0" encoding="UTF-8"?>
<svg id="Layer_1" data-name="Layer 1" xmlns="http://www.w3.org/2000/svg" viewBox="0 0 595.28 841.89">
  <path d="M387.51,200.83c1.85,1.99,3.03,12.95,3.25,16.26,7.25,110.78-64.14,207.5-156.69,260.29-5.46,3.11-14.77,10.42-20.26,6.65l-111.3-111.71c-1.05-1.69-.75-2.97-.31-4.74.93-3.8,9.86-17.25,12.54-21.51,56.68-90,146.37-155.83,257.51-148.47,3.26.22,13.4,1.25,15.25,3.24ZM261.55,267.86c-57.89,6.94-58.22,96.54,3.85,101.59,73.16,5.96,73.89-110.91-3.85-101.59Z"/>
  <path d="M86.51,460.82c21.88-3.44,42.59,17.34,40.15,39.15-3.25,29.12-55.53,53.16-81.35,54.64-13.36.77-13.69-2.76-12.42-15.41,2.53-25.27,25.58-73.97,53.62-78.38Z"/>
  <path d="M318.76,428.58c-.86,58.08-41.44,105-97.17,118.32-5.34,1.28-15.16,4.78-17.38-2.28l5.02-47.09,1.12-.86c2.64.37,5.09,1.9,7.83,1.81,12.49-.37,59.51-34.54,71.07-43.94,10.17-8.28,19.15-17.93,29.52-25.97Z"/>
  <path d="M158.77,269.59c-21.24,22.59-41.43,47.39-57.42,74.07-6.54,10.91-15.08,21.48-10.58,34.91-13.27.29-27.51,4.34-40.51,4.99-11.59.58-12.95-1.16-11.19-12.19,2.64-16.59,12.28-36.38,21.89-50.11,22.42-32.04,58.15-52.07,97.81-51.68Z"/>
  <path d="M115.78,405.58l65.52,66.03c-8.56,5.07-15.9,8.27-25.44,3.37-5.2-2.67-35.48-33.02-40.13-38.87-9.36-11.79-5.64-18.26.04-30.52Z"/>
  <path d="M268.59,279.81c49.65-.98,52.11,72.54,5.66,76.75-55.25,5-57.25-75.73-5.66-76.75Z"/>
</svg>