<?xml version="1.0" encoding="UTF-8"?>
<svg id="Layer_2" data-name="Layer 2" xmlns="http://www.w3.org/2000/svg" viewBox="0 0 371.32 369.6">
  <defs>
    <style>
      .cls-1 {
        fill: #fff;
      }
    </style>
  </defs>
  <g id="Layer_1-2" data-name="Layer 1">
    <g>
      <path class="cls-1" d="M220.99,362.96C94.06,398.35-24.1,286.92,4.25,158.22,27.67,51.89,145.06-5.96,244.56,38.05l-10.99,12.5,7.83,37.79-10.93,11.63c-59.94-33.98-138.98-6.9-161.92,58.55-29.96,85.48,47.11,168.31,134.23,145.23,67.64-17.91,99.63-91.66,71.66-155.09-1.17-2.66-4.8-5.52-3.41-8.59.37-.79,10.5-10.69,11.26-10.89l37.85,7.77,12.42-10.91c4.46,12.77,9.3,25.38,11.72,38.79,15.82,87.92-37.58,174.22-123.29,198.13Z"/>
      <path class="cls-1" d="M114.1,267.01c-64.21-53.6-28.23-159.07,55.26-162.67,14.87-.65,32.33,2.44,45.19,10.2l-33.01,33.03c-53.06-8.29-80.13,62.7-33.89,90.88,36.95,22.53,80.28-8.81,75.44-50.39l32.04-31.98c2.58-.57,6.48,12.33,7.15,14.75,24.27,87.94-78.85,154.05-148.18,96.18Z"/>
      <path class="cls-1" d="M371.32,58.38l-55.79,57.18c-1.03.72-2.05.41-3.17.29-10.27-1.09-24.82-7.3-34.59-7.62-1.09-.04-1.9-.22-2.73.73l-74.03,73.11c-.61,1.23,2.14,7.09,2.44,9.58,2.88,23.14-18,40.73-40.16,33.16-24.43-8.34-27.05-43.08-4.4-54.95,10.24-5.37,17.95-3.96,28.65-1.28l74.56-73.58-7.49-37.61.89-2.9L311.12,0l3.46.52,1.73,2.27,9.48,42.02,44.1,10.15,1.43,3.42Z"/>
    </g>
  </g>
</svg>