<?xml version="1.0" encoding="UTF-8"?>
<svg id="Layer_1" data-name="Layer 1" xmlns="http://www.w3.org/2000/svg" viewBox="0 0 612 792">
  <path d="M371.07,430.74c6.72-7.59,20.63-15.32,25.87-23.41,2.69-4.15,3.12-9.39,5.55-13.84,6.29-11.52,19.02-16.39,31.69-13.74,7.04,1.47,12.93,8.19,16.9,8.94,15.19,2.89,38.7-2.03,54.87,0l24.6-22.25,30.33-.29c2.3.44,24.83,21.86,25.89,24.2,1.55,3.41.76,6.23-3.27,6.58-7.13.62-18.37-18.96-24.54-20.79-4.27-1.27-16.59-1.39-19.87,2.09v60.59c6.04-.85,15.6,1.6,20.98-.84,5.89-2.67,16.02-20.3,23.54-20.18,15.16.23-16.76,29-21.12,30.68l-33.56-.29-24.6-22.25c-15.69,1.97-38.53-2.82-53.25,0-6.08,1.16-17.95,16.27-30,10.34l-49.2,41.34c-.52,11.34-1.81,20.62-5.79,31.26l53.47,45.46c13.79-3.88,23.03,8.12,30.21,10.18,4.21,1.21,50.98,1.3,56.17.31,7.48-2.09,18.67-20.49,24.6-22.25s30.96-.98,35.95,2.17c4.18,2.63,22.35,20.91,20.99,25.6-3.46,11.96-23.87-15.96-27.41-17.57-5.37-2.44-14.94,0-20.98-.84v63.01c6.04-.85,15.6,1.6,20.98-.84,3.9-1.77,23.54-29.39,27.37-17.55.59,1.97.15,3.63-.69,5.44-.63,1.35-19.61,20.37-20.91,21.11-4.11,2.36-31.32,2.42-36.53.81-7.51-2.32-18.13-20.55-24.99-21.86-15.69,1.97-38.52-2.81-53.25,0-4.44.85-8.3,7.93-14.95,9.29-22.63,4.62-34.36-8.85-39.89-28.84l-48.6-41.85c-16.57,20.09-33.43,77.71-60.5,83.27-55.27-2.41-117.76,5.66-172.24.78-13.75-1.23-22.89-9.04-30.14-19.95-21.72-32.71-40.02-74.65-58.74-109.3.87-32.34-3.66-69.26-.8-101.13,1.37-15.26,12.34-29.76,27.18-34.22,5.89-1.77,17.04-1.45,20.43-3.81s6.93-16.27,12.4-21.53c2.78-2.68,15.06-9.04,18.42-9.04h87.25l2.42-2.42v-43.63c0-3.21,9.69-3.21,9.69,0v43.63l2.42,2.42h87.25c3.82,0,16.25,6.74,19.23,9.85,4.42,4.63,9.51,20.34,12.25,21.69,15.57.45,31.19,4.25,40.15,18.01,1.65,2.53,6.73,13.64,6.73,15.89v39.59ZM309.67,358.03c3.07-12.41-8.89-21.54-20.38-22.44-57.79,2.92-120.39-4.5-177.62-.25-13.98,1.04-27.49,6.52-24.97,22.69h222.97ZM352.72,376.39c-5.32-5.18-13.76-8.11-21.16-8.73-86.33,4.96-179.61-6.37-265.12,0-16.17,1.2-29.57,9.44-31.44,26.73-2.02,18.71-2.58,80.61.39,98.18.78,4.61,3.81,9.37,5.8,13.58,15.68,33.2,38.9,66.31,55.96,99.15,5.12,5.42,12,9,19.36,9.72,51.94,5.08,112.1-4,164.93-.04,13.94-2.25,18.71-10.88,25.28-21.57,15.46-25.15,36.77-61.9,49.04-88.3,1.81-3.9,4.52-8.29,5.24-12.54,3.01-17.86,2.3-77.43.37-96.54-.72-7.13-3.48-14.61-8.64-19.63ZM529.41,433.98v-53.32c-14.51,9.83-16.34,17.6-14.64,34.84.85,8.65,8.5,13,14.64,18.48ZM505.18,398.43h-50.09c1.24,6.47,2.52,11.31,0,17.77h50.09v-17.77ZM401.55,419.67c-1.99-1.14-3.87.2-5.52,1.3-2.08,1.39-23.44,21.22-24.12,22.73-2.44,5.36,0,14.95-.82,20.98l38.46-30.94.33-3.7-8.32-10.36ZM401.75,572.93l7.99-12.33-.6-2.19-49.35-42.02-7.4,16.21,49.36,40.34ZM529.41,610.09v-53.32c-14.51,9.83-16.34,17.6-14.64,34.84.85,8.65,8.5,13,14.64,18.48ZM505.18,574.55h-50.09c1.67,6.54,1.67,11.23,0,17.77h50.09v-17.77Z"/>
  <path d="M49.16,235.64c6.49-.77,11.61.12,17.66,2.51,12.66,5,16.7,17.84,31.99,18.23,18.78.48,24.26-21.22,46.86-21.25,21.28-.03,27.67,20.8,45.24,21.25,18.78.48,24.26-21.22,46.86-21.25,21.28-.03,27.67,20.8,45.24,21.25,18.78.48,24.26-21.22,46.86-21.25,20.91-.03,27.5,19.98,43.66,21.17,19.92,1.46,26.09-21.17,48.44-21.16,20.94,0,27.5,19.98,43.66,21.16,15.91,1.16,18.18-8.36,28.74-14.9s22.09-7.91,34.06-2.74c14.96,6.46,18.29,22.7,39.49,16.5,6.08-1.78,11.69-10.13,17.05-8.48l2.68,3.92c-8.89,16.19-29.3,19.28-45.14,11.15-10.27-5.28-15.24-17.35-29.82-16.71-18.75.83-22.81,22.41-47.14,20.99-20.43-1.19-27.64-20.99-43.55-21.1-19.38-.14-24.05,22.53-48.55,21.1-20.43-1.19-27.64-20.99-43.55-21.1-18.9-.13-23.96,21.59-46.9,21.13-22.12-.45-28.81-21.01-45.19-21.13-18.9-.13-23.96,21.59-46.9,21.13-22.12-.45-28.81-21.01-45.19-21.13-19.38-.14-24.05,22.53-48.55,21.1-23.71-1.38-29.43-28.32-54.06-18.64-4.23,1.66-11.62,9.68-14.57,8.15-12.84-6.63,13.06-19,20.63-19.89Z"/>
  <path d="M193.34,168.18c1.18-3.92,9.69-2.64,9.69,0v71.09c0,3.21-9.69,3.21-9.69,0v-71.09Z"/>
  <path d="M310.83,507.83l-222.67,1.39c-3.82-1.07-10.43-13.93-11.06-17.99-1.17-7.52-1.19-39.22.27-46.39,1.97-9.67,10.84-14.59,20-15.54,20.23-2.09,15.4,5.36,21.33,18.71,3.96,8.92,10.89,16.18,20.9,17.88,33.24,5.66,79.68-3.43,114.33.39,11.64-1.47,19.08-7.79,23.73-18.27,4.35-9.8,1.17-18.32,15.01-19.01,12.55-.63,25.09,5.07,26.73,18.66,1.03,8.58,1.15,35.29-.14,43.56-.87,5.55-5.86,11.62-8.43,16.59Z"/>
  <path d="M97.2,519.61h201.97l2.43,3.95c.04,2.75-22.88,43.83-26.13,48.3-3,4.13-6.19,6.54-11,8.39l-126.97.84c-6.39,0-12.03-3.42-15.98-8.26-3.09-3.79-25.15-43.06-26.04-46.73-.75-3.07-1.41-4.31,1.71-6.49Z"/>
  <path d="M131.46,434.3l130.62-.4c15.06,1.99,4.72,20.58-8.26,22.59-34.74-2.7-75.8,3.98-109.77.1-10.89-1.24-24.15-13.25-12.6-22.29Z"/>
  <path d="M160.22,393.58l1.64,1.59c2.4,6.58-2.8,7.69-8.01,8.2-12.67,1.24-42.46,1.31-54.9-.27-7-.89-8.16-4.08-3.36-9.52h64.63Z"/>
  <path d="M300.79,393.58l1.64,1.59c2.4,6.58-2.8,7.69-8.01,8.2-12.67,1.24-42.46,1.31-54.9-.27-7-.89-8.16-4.08-3.36-9.52h64.63Z"/>
</svg>