<?xml version="1.0" encoding="UTF-8"?>
<svg id="Layer_1" data-name="Layer 1" xmlns="http://www.w3.org/2000/svg" viewBox="0 0 612 792">
  <path d="M448.79,324.06h52.53c.37,0,5.2,4.83,5.2,5.2v59.45h17.89c1.16,0,5.2,4.03,5.2,5.2v40.41l1.73,1.73h41.56c1.85,0,6.74,8.31,4.13,10.97l-45.09,95.84c-.25,2.85.16,1.21,1.14,1.16,4.83-.28,10.96-2.22,15.09,1.04,4.64,3.66,3.98,10.37-.4,13.73l-49.87,12.37c-17.98,2.93-35.14-9.55-51.94-10.48-20.36-1.13-37.32,12.66-60.08,10.43-11.97-1.17-24.37-8.6-36.09-10.09-19.69-2.5-34.18,9.09-52.76,10.15-22.37,1.28-39.67-12.84-60.94-10.15-12.15,1.54-24.46,8.98-37.26,10.08-22.19,1.91-38.69-11.54-58.91-10.42-12.68.7-25.7,8.57-38.37,10.11-19.91,2.42-33.5-5.68-51.92-9.78-6.37-1.42-14.97,1.31-15.41-8.92-.69-16.09,27.37-6.25,35.89-2.91-2.82-7.52-5.24-14.29-5.81-22.46-1.89-26.94,1.57-56.05,0-83.23-.93-1.85,4.78-7.44,5.26-7.44h27.71c1.14-.73,1.49-1.59,1.73-2.89,1.77-9.66-2.58-33.23.85-40.71,2.79-6.08,14.48-3.05,19.93-3.74v-169.13c0-4.85,8.46-6.12,12.07-6.4,48.66-3.79,102.15,2.97,151.33,0,3.37-.68,10.92,3.01,10.92,6.39v169.13h43.87v-58.3c0-.8,4.67-6.35,5.2-6.35h52.53v-35.79c-8.86.63-17.84,9.88-23.98-.84l-15.22-56.44c-.7-4.92,2.11-9.04,6.89-10.22l190.67-40.27c4.19-.38,7.9,1.1,9.63,5.01,2.31,5.24,8.93,29.87,9.53,35.54.36,3.45.71,6.25-2.09,8.86l-122.31,41.62v52.53ZM385.34,272.07l168.01-54.17-3.53-17.39-172.62,35.23c-1.51.85-.86,1.69-.68,2.91,1.57,10.7,7.45,22.43,8.83,33.42ZM276.78,230.55h-139.69v28.86h139.69v-28.86ZM276.78,276.73h-139.69v24.24h139.69v-24.24ZM431.48,276.73l-18.31,6.51c.74,11.58-1.54,25.58-.22,36.84.2,1.68.14,2.97,1.79,3.98h16.74v-47.33ZM276.78,318.29h-139.69v24.24h139.69v-24.24ZM489.2,341.38h-133.92v47.33h133.92v-47.33ZM276.78,359.85h-139.69v28.86h139.69v-28.86ZM512.29,406.02H116.31v30.02h395.98v-30.02ZM555,453.36H81.68v75.62c0,5.36,9.88,24.24,15.6,24.83,6.99.72,29.3-9.69,40.34-10.44,25.06-1.71,41.41,14.47,66.66,8.94,11.41-2.49,21.4-8.18,33.77-8.95,22.51-1.39,39.75,12.84,60.94,10.15,12.66-1.61,24.82-9.18,38.34-10.14,23.05-1.64,41.08,13.03,62.09,10.14,18.63-2.57,29.2-12.26,50.95-9.95,19.43,2.07,40.04,18.1,59.47,6.08l45.15-96.27Z"/>
  <path d="M47.86,582.9c13.84-3.17,35.41,10.86,49.52,11.17,14.16.32,31.41-10.81,47.16-11.47,23.99-1,37.36,15.25,63.22,8.95,11.12-2.71,21.95-8.47,33.75-8.95,22.13-.9,38.25,14.47,60.7,9.89,12.67-2.58,24.18-9.57,37.43-9.9,22.17-.55,37.52,14.72,60.48,9.69,11.69-2.56,23.07-8.95,35.35-9.67,23.71-1.39,38.54,15.13,63.45,9.19,8.81-2.1,45.74-18.99,45.75-.49,0,10.14-12.67,8.47-19.7,10.38-17.92,4.88-28.88,11.71-48.54,8.15-11.42-2.07-24.07-9.15-35.17-9.85-16.91-1.07-34.29,11.54-51.81,11.41-16.06-.12-33.24-11.76-48.63-11.51-15.43.25-32.12,11.81-48.41,11.67-16.02-.14-33-11.87-48.56-11.67-11.97.15-25.32,7.71-37.44,9.96-20.9,3.88-29.98-3.79-48.53-8.15-20.2-4.75-30.06,4.67-48.44,8.15-19.77,3.74-30.52-3.09-48.54-8.15-7.65-2.15-20.8-.09-19.73-11.55.32-3.45,3.32-6.47,6.69-7.24Z"/>
  <path d="M162.21,468.67c45.77-6.51,48.55,66.01,2.02,62.02-36.78-3.16-36.66-57.09-2.02-62.02ZM164.5,485.93c-17.3,3.37-13.25,31.2,6.39,27.19,16.85-3.44,10.79-30.54-6.39-27.19Z"/>
  <path d="M318.06,468.67c41.77-5.73,48.52,57.31,8.81,61.9-41.79,4.84-48.1-56.52-8.81-61.9ZM320.37,485.9c-16.78,2.49-14.63,29.49,4.19,27.41,17.61-1.95,14.43-30.17-4.19-27.41Z"/>
  <path d="M473.91,468.67c41.3-5.11,47.64,56.91,8.85,61.93-42.05,5.45-49.15-56.95-8.85-61.93ZM476.23,485.91c-18.33,2.52-14.53,30.18,4.23,27.41,17.26-2.55,12.98-29.78-4.23-27.41Z"/>
</svg>