<?xml version="1.0" encoding="UTF-8"?>
<svg id="Layer_2" data-name="Layer 2" xmlns="http://www.w3.org/2000/svg" viewBox="0 0 368.21 371.29">
  <defs>
    <style>
      .cls-1 {
        fill: #fff;
      }
    </style>
  </defs>
  <g id="Layer_1-2" data-name="Layer 1">
    <g>
      <path class="cls-1" d="M91.81,193.42c1.7,2.11,4.68,19.95,6.52,25,8.6,23.62,27.19,41.68,49.42,52.58,4.24,2.08,14.23,3.66,14.31,8.71.11,6.65-5.32,5.77-10.34,5.31-50.24-4.61-105.79-41.6-137.59-79.4C10.87,201.74-.22,188.83,0,184.66c.18-3.4,9.82-14.25,12.58-17.53,37.39-44.41,87.12-73.11,144.31-83.69,5.71-1.06,19.92-.03,21.18-6.82,1.35-7.25-2.17-25.32,1.55-30.45,4.55-6.28,9.94-1.04,10.53,5.43,1.1,12.11,1.27,39.13-.05,51.05-.47,4.27-1.54,7.89-6.5,7.6-9.16-.54-2.48-16.62-8.2-17.94-41.95,5.37-70.09,32.74-80.86,72.79-1.19,4.41.02,11.33-4.9,14.1s-33.5-.04-42.07.93c-7.82.89-7.39,9.58-1.76,10.79,11.12,2.4,28.9-1.3,40.82.18,1.5.19,4.28,1.22,5.17,2.32Z"/>
      <path class="cls-1" d="M188.8,325.85c-2.97,3.67-8.58,2.16-9.68-2.23l-.07-57.03c6.48-13.68,13.42.44,11.19,9.91,1.25,3.78,15.36-.19,18.62-1.1,26.76-7.44,50.24-30.04,60.26-55.74,2.01-5.15,5.88-24.51,7.27-26.24.89-1.1,3.67-2.14,5.17-2.32,12.11-1.51,28.06,1.82,39.97-.02,1.31-.2,2.52-.61,3.59-1.41,2.21-4.3,1.8-8.63-3.59-9.46-9.01-1.38-37.47,2.09-42.98-1.02-4.92-2.77-3.71-9.69-4.9-14.1-6.87-25.58-20.51-47.66-43.88-61.12-3.52-2.03-17.45-7.48-18.74-9.25-2.97-4.05.22-9.14,5.39-9.22s19.14,3.59,24.7,5.13c43.99,12.18,86.64,42.52,115.5,77.5,2.88,3.48,11.78,13.77,11.58,17.51s-13.32,18.9-16.59,22.52c-37.8,41.96-84.6,68.97-140.28,79.72-5.71,1.1-19.93-.06-21.2,6.8s1.92,27.17-1.33,31.18Z"/>
      <path class="cls-1" d="M178.9,133.44c70.62-6.62,77.78,100.43,8.69,104.69-68.11,4.19-75.88-98.38-8.69-104.69Z"/>
      <path class="cls-1" d="M368.11,366.64c-.6,2.08-5.46,3.27-7.5,3.5-14.24,1.63-47.5,1.35-62.04.04-11.42-1.03-11.15-10.63-2.9-11.98,16.59-2.71,39.99,2.23,56.99-.01,3.27-.43,4.06-1.19,4.5-4.5,2.31-17.53-1.99-39.78.17-57.83,1.57-5.74,6.86-6.17,10.79-2.21v73Z"/>
      <path class="cls-1" d="M.11,4.64C.71,2.56,5.56,1.38,7.61,1.15c12.72-1.45,51.5-1.63,63.91.09,10.83,1.5,6.35,11.91,2.09,11.91H12.61l-1.5,1.5v61c0,4.38-8.32,6.32-11,2V4.64Z"/>
      <path class="cls-1" d="M294.61,13.14c-6.08-1.29-7.22-10.62,2.09-11.91,12.41-1.72,51.19-1.54,63.91-.09,1.73.2,7.5,1.7,7.5,3.5v73c-2.68,4.32-11,2.38-11-2V14.64l-1.5-1.5h-61Z"/>
      <path class="cls-1" d="M.11,293.64c2.68-4.32,11-2.38,11,2v61l1.5,1.5h61c4.26,0,8.74,10.41-2.09,11.91-12.41,1.72-51.19,1.54-63.91.09-1.73-.2-7.5-1.7-7.5-3.5v-73Z"/>
    </g>
  </g>
</svg>